<?xml version="1.0" encoding="UTF-8"?>
<svg xmlns="http://www.w3.org/2000/svg" xmlns:xlink="http://www.w3.org/1999/xlink" viewBox="0 0 488.06 496.57">
  <defs>
    <style>
      .cls-1 {
        fill: #f37e2e;
      }

      .cls-1, .cls-2, .cls-3, .cls-4, .cls-5, .cls-6 {
        stroke-width: 0px;
      }

      .cls-7, .cls-8, .cls-9, .cls-10, .cls-11, .cls-12, .cls-13 {
        stroke-miterlimit: 10;
      }

      .cls-7, .cls-8, .cls-9, .cls-11 {
        stroke: #000;
      }

      .cls-7, .cls-8, .cls-11 {
        stroke-width: 2px;
      }

      .cls-7, .cls-9 {
        fill: none;
      }

      .cls-2, .cls-12 {
        fill: #e47925;
      }

      .cls-8 {
        fill: #282973;
      }

      .cls-10 {
        stroke: #070808;
      }

      .cls-10, .cls-4 {
        fill: #fee000;
      }

      .cls-3 {
        fill: rgba(0, 0, 0, .43);
      }

      .cls-11 {
        fill: url(#linear-gradient);
      }

      .cls-5 {
        fill: #e42a26;
      }

      .cls-12 {
        stroke: #050606;
      }

      .cls-6 {
        fill: #e42528;
      }

      .cls-13 {
        fill: #fff;
        stroke: #0c0c0d;
        stroke-width: .25px;
      }
    </style>
    <linearGradient id="linear-gradient" x1="59.32" y1="118.6" x2="79.79" y2="183.03" gradientUnits="userSpaceOnUse">
      <stop offset="0" stop-color="#282973"/>
      <stop offset=".41" stop-color="#282970"/>
      <stop offset=".58" stop-color="#191a47"/>
      <stop offset=".76" stop-color="#0b0b20"/>
      <stop offset=".91" stop-color="#030308"/>
      <stop offset="1" stop-color="#000"/>
    </linearGradient>
  </defs>
  <g id="Fire">
    <g id="Upper_Fire" data-name="Upper Fire">
      <path class="cls-5" d="M84.88,129.97s-11.64-13.25-7.02-31.51c4.62-18.26,4.62-23.28,9.43-29.7,0,0,2.21,45.16,8.03,48.37,0,0,2.01,4.21,3.01-1.4,1-5.62,2.41-5.82,2.41-5.82l4.82,14.85s5.22-7.43-2.41-28.3-20.47-65.23-19.47-67.04c0,0,11.84,5.42,24.49,43.15,12.64,37.73,8.63-70.25,8.63-70.25,0,0,1-5.22,4.82,0s7.83,30.31,7.83,34.32,1.2,38.13,11.04,37.73c9.83-.4,9.83-15.45,9.83-15.45,0,0,1.2-16.06-2.41-20.27s-8.43-14.45-8.43-14.45c0,0,9.82-2.81,11.03-2.01s8.64-16.66,8.64-16.66c0,0,6.22,46.36,6.22,47.37s3.21,62.02,3.21,62.02l7.83-3.41,1.2,14.05s3.21,10.04,3.41,11.24,4.62,13.05,4.62,13.05c0,0,6.82-7.02,6.82,0s1.61,13.05,1.61,13.05c0,0-3.61,5.22-4.21,5.82s-9.43,0-9.43,0l-35.93,23.48-29.91-4.82-14.25-37.33-13.85-11.84-1.61-8.23Z"/>
      <path class="cls-1" d="M189.95,265.17c17.66-17.06,10.24-71.05,8.03-77.67l-2.29,2.61s.49-31.31-2.52-37.13c0,0-3.61,3.41-4.82,6.42l-6.62-30.51s-1.4-7.83-4.82,1.2c-3.41,9.03-1.78,6.22-1.78,6.22,0,0,5.19-38.73-3.84-28.9,0,0,4.01-30.31,0-38.74-4.01-8.43-1.81-23.08-1.81-23.08,0,0-8,14.45-13.03,14.05s0,4.42,0,4.42c0,0,7.86,18.72,3.22,32.04,0,0,1.38,2.85-3.44,3.5,0,0,4.61,27.79-2.02,38.92,0,0,.62-37.01-1.19-38.81s-5.02-12.04-5.02-12.04c0,0-3.61-47.77-10.24-47.37,0,0,1.4,65.43-4.42,61.42s-9.06-23.08-9.06-23.08c0,0-12.82-18.67-13.02-15.05s18.67,61.01,17.26,63.42-8.03,8.83-8.03,8.83l-2.41-6.42s-5.22-30.51-3.61-35.53-8.43,7.83-8.83,32.51,9.43,109.99,9.43,109.99l40.74,34.72,20.07-3.01,14.05-2.94Z"/>
      <path class="cls-9" d="M187.5,263.05s13.85-31.01,2.71-59.31c0,0-3.91,6.62-6.02,3.61s8.73-29.2-1.51-44.56c0,0-2.71,11.74-4.52,4.82-1.81-6.92-6.45-43.53-9.61-45.79,0,0,2.78,34.1-4.82,33.79,0,0,.23-15.96-2.71-15.66,0,0-2.86,3.54-3.24,1.88s-.83-18.82,3.09-30.26,1.7-21.3-3.33-13.62c-5.03,7.68-.21-35.53-.21-35.53,0,0,2.33-20.17-1.66-28.53,0,0,.74-13.2-.77-16.28,0,0-3.61,12.57-4.44,11.82s-1.04.1-1.04.1c0,0-3.09-1.43-3.84-2.71s7.23,19.27,5.64,27.1c-1.58,7.83-2.18,23.56-2.18,23.56,0,0-.36,9.16-5.33,6.68-.13-.06-.25-.13-.39-.21,0,0,3.01,19.27,2.11,27.4-.9,8.13-3.76,13.55-3.84,21.15s-7.4-1.98-7.4-1.98c0,0,1.2-47.87-6.32-62.32,0,0-2.41-51.78-10.84-63.22,0,0,4.21,75.87-3.01,79.78s-9.03-9.33-9.03-9.33c0,0-12.64-32.82-16.56-32.51,0,0,14.15,53.59,18.36,56.9s2.71,34.2,2.71,34.2l-6.32-4.09-4.97-7s.68,10.24-7.15,1.88-6.77-47.12-6.77-47.12c0,0-7.98,17.76-4.59,32.59,3.39,14.83,5.49,22.05,5.49,22.05"/>
    </g>
  </g>
  <g id="Pants">
    <path class="cls-8" d="M97.53,237.45c7.02,11.04,33.52,82.29,35.32,86.71,1.81,4.42.2,4.82,6.62,21.27,6.42,16.46,13.25,30.31,13.45,35.32s12.38,35.73,12.85,38.94c1.61,11.04,4.82,21.88,4.82,21.88,0,11.64,6.22,17.26,6.22,17.26,0,0,21.68,3.41,35.12-2.01,13.45-5.42,33.12-17.26,33.52-20.27s-12.44-48.77-12.44-48.77l-30.51-85.7s-16.86-40.94-16.66-45.76-16.06-44.16-16.06-44.16c0,0-7.83-25.69-11.24-28.1s1.4-6.62-4.21-7.83c-5.62-1.2-11.64-35.53-11.64-35.53,3.98-4.64,1.08-9.04-8.95-11.08-8.2-1.67-21.15-1.77-39.02.85-39.74,5.82-85.5,41.14-85.5,41.14,0,0-14.05,13.25-5.42,18.87s10.24,34.32,10.24,34.32c0,0,9.94,49.57,9.33,61.32s14.45,79.78,15.05,81.29,12.64,80.99,20.17,88.51c0,0,1.2,28.3,20.77,25.89s48.47-1.2,56.6-21.68c0,0,2.41-.9-4.52-27.4s-19.97-90.42-19.97-90.42c0,0-4.82-27.7-6.62-30.01s-3.21-33.92-8.63-51.48c-5.42-17.56,1.3-23.38,1.3-23.38Z"/>
    <path class="cls-11" d="M83.99,164.49c20.62-5.72,52.06-32.86,51.7-34.42s-41.6-4.87-68.52,8.23c-26.92,13.1-43.17,22.95-46.12,24.94s-16.33,11.29-16.06,13.19,40.17,2.5,63.35-5.18l6.47,8.28-2.41-10.09,11.59-4.97Z"/>
    <path class="cls-7" d="M3.96,177.88l5.21,14.61s56.22-3.18,60.51-9.78l-.69-10.59"/>
    <path class="cls-7" d="M73.45,173.89l4.96,5.65s42.45-14.9,56.6-33.72c0,0,6.17-4.82,5.57-8.13-.6-3.31-7.26-4.85-7.26-4.85"/>
    <path class="cls-8" d="M59.75,188.32s21.27,36.93,23.48,35.93c1.36-.62,5.03-1.46,7.69-3.45,1.66-1.24,2.91-2.93,2.95-5.28.1-6.12-7.23-36.83-7.23-36.83l-14.25,6.42,18.52,35.69"/>
  </g>
  <g id="Layer_5" data-name="Layer 5">
    <path class="cls-7" d="M125.28,156.47s2.65,3.66,6.5,8.03c6.43,7.27,16.21,16.49,22.7,13.95l-10.99-36.43-2.71-1.81-15.5,16.26Z"/>
    <polyline class="cls-7" points="131.78 164.5 138.98 162.35 146.55 177.29"/>
    <path class="cls-7" d="M116.6,161.37s22.68,15.73,26.74,21.45,13.4,0,13.4,0"/>
    <circle class="cls-13" cx="63.66" cy="180.26" r="2.07"/>
  </g>
  <g id="Shading">
    <path class="cls-3" d="M71.88,247.13s12.64,4.01,13.25,8.53,4.82,37.33,0,43.05l9.63,24.08,6.32,27.4s0,31.61,4.52,37.93,9.63,29.81,9.63,30.71,8.13,37.63,6.92,39.14-11.14,10.54-11.44,17.76-.6,3.31-.6,3.31c0,0,24.39-8.43,26.19-20.47,1.81-12.04-28.3-122.83-28.3-132.47s-16.86-76.17-13.25-82.49c0,0-1.2-10.54,3.01-5.72,4.21,4.82,43.05,109.29,43.05,110.19s23.18,65.33,23.18,65.33l4.52,19.27,1.51-10.24s-33.72-133.37-42.45-136.38c-8.73-3.01-14.45-49.43-14.45-49.43,0,0-4.52-15-21.68-6.87-17.16,8.13-19.57,17.36-19.57,17.36Z"/>
    <path class="cls-3" d="M66.98,474.78s-25.29-122.83-23.18-133.07c2.11-10.24-7.83-32.21-7.83-32.21,0,0-8.12-63.87-13.55-78.88-1-2.76-1.2-1.81-1.2-1.81,0,0,12.42-31.75,23-34.97.47-.14.93-.23,1.39-.25,10.84-.6,14.75-5.83,14.75-5.83l-52.08,6.13,22.88,138.34,14.45,77.52,6.62,36.43,8.43,26.19,6.32,2.41Z"/>
  </g>
  <g id="Layer_6" data-name="Layer 6">
    <g id="Upper_Fire-2" data-name="Upper Fire">
      <path class="cls-6" d="M80.04,445.37s6.56-12.67,2.74-28.81c0,0-6.62-42.93-7.73-44.13,0,0,16.96,27.6,17.06,38.54.1,10.94,5.02,41.14,5.02,41.14,0,0,.9-36.43,3.2-31.11s7.23,33.02,7.23,33.02c0,0-.7-33.82,1.71-31.81s4.52,5.62,4.52,5.62c0,0,.6-30.11,3.51-24.79,2.91,5.32,3.81,19.37,5.12,43.45s9.83,28.8,9.83,28.8c0,0,5.62,15.55,2.91,14.35-2.71-1.2-15.96-13.55-15.96-13.55,0,0-13.85-10.74-15.35-.8-1.51,9.94-5.02,12.95-5.02,12.95l-3.61-.28-8.23-2.43-14.25-9.43-3.79-18.47,11.11-11.86"/>
      <path class="cls-2" d="M76.26,460.95s20.27,19.77,20.87,24.69c.6,4.92-36.43,1.38-36.43,1.38l3.21-13.52,12.34-12.54Z"/>
      <path class="cls-4" d="M41.03,487.01l-8.83,9.56s19.17-6.62,25.79-4.62c7.86,2.38,12.54,2.61,12.54,2.61l-10.56-15.2h-16.84l-2.11,7.65Z"/>
      <path class="cls-12" d="M93.19,486.11s-13.1-17.31-12.64-27.7c.45-10.39-2.28-21.07-.01-29.05s-2.7-16.11-2.7-16.11c0,0,0,22.43-1.35,21.22s-7.23-7.38-2.71-21.22c4.52-13.85-.6-20.77-.6-20.77,0,0-2.56,4.67-3.31,3.46s-10.39-9.78-7.68-25.59c2.71-15.81,8.43-19.42,8.43-19.42,0,0-28.6,24.08-27.85,35.22.75,11.14,21.36,50.28,25.21,55.24s-5.04,28.9-5.04,28.9c0,0-5.57,14.9-3.76,16.71"/>
      <path class="cls-10" d="M35.74,493.49s6.72-8.03,3.51-27.3c-3.21-19.27-12.04-32.61-12.04-32.61,0,0-3.41-11.24-.5-26.19,2.91-14.95,3.51-36.73,1.91-40.04,0,0,9.83,13.25,8.03,39.24-1.81,25.99,11.24,47.57,11.24,47.57,0,0-2.21-16.16.8-29.4s3.01-31.31,3.01-31.31c0,0-5.82-29.2-6.72-29.4s5.72-24.39,5.72-24.39c0,0,1.3,20.27,2.01,24.69s.6,17.56,6.82,23.38c6.22,5.82,9.53,25.39,9.43,25.69s-7.13,24.89-8.33,33.22c-1.2,8.33-4.42,34.02,2.41,43.25"/>
      <path class="cls-9" d="M80.37,449.9s5.92-4.91,5.52-19.16c-.4-14.25-3.4-35.53-6.97-42.05l-1.46-9.53s7.97,9.43,8.45,17.06c0,0,6.3,12.54,6.6,19.87s.4,24.79,1.51,31.61,3.81,15.05,3.81,15.05c0,0,2.21-24.99.9-32.41,0,0,1-7.53,1.2-7.02,0,0,1.91-.8,5.82,29.5,3.91,30.31,4.62-23.88,4.62-23.88,0,0,3.81,4.72,4.92-1.2s1.3-20.07,2.21-19.07c0,0,2.61,3.11,2.81,14.35s2.31,33.32,2.31,33.32c0,0,1.61,10.74,7.33,16.06,0,0,3.71,6.22,3.61,10.94"/>
    </g>
  </g>
</svg>